<svg  xmlns="http://www.w3.org/2000/svg"
      xmlns:openbadges="http://openbadges.org"
      xmlns:xlink="http://www.w3.org/1999/xlink"
      viewBox="0 0 350 336.24">
  <openbadges:assertion verify="https://s3.amazonaws.com/rapidminer.badges/Assertions/490f69eb-d007-4fd2-9db0-90a3eb6565c6.json">
        <![CDATA[
        {
          "uid":"490f69eb-d007-4fd2-9db0-90a3eb6565c6",
          "recipient":
            {
              "type":"email",
              "identity":"sha256$b584dd4b89810a4b4c8b15c6d674abc03f15a1e1f4ffa44a141c6d2bbd3472fd",
              "hashed":true
              },
              "issuedOn":"2020-12-28T15:29:33.472Z",
              "badge":"https://s3.amazonaws.com/rapidminer.badges/Badges/rapidminer-AUCL1-badge.json",
              "verify":
                {
                  "type":"hosted",
                  "url":"https://s3.amazonaws.com/rapidminer.badges/Assertions/490f69eb-d007-4fd2-9db0-90a3eb6565c6.json"
                  }
          }
        ]]>
    </openbadges:assertion>
    <defs><style>.cls-1,.cls-2,.cls-4{fill:#fff;}.cls-2{stroke:#e65525;stroke-miterlimit:10;stroke-width:0.64px;}.cls-3{fill:#e65525;}.cls-4{fill-rule:evenodd;}</style></defs><title>RAC_</title><circle class="cls-1" cx="40.64" cy="39.25" r="33.35"/><path class="cls-2" d="M79,34.27A39.37,39.37,0,1,0,45.73,79,39.42,39.42,0,0,0,79,34.27ZM62,56.34A27.39,27.39,0,1,1,56.34,18,27.42,27.42,0,0,1,62,56.34Z"/><path class="cls-3" d="M8.92,38.14l-.83.21v1.44l.83.22v1.31L4.49,39.87V38.28l4.44-1.44Zm-1.8.46-.73.19L5.77,39l-.55.12.5.11c.24,0,.7.17,1.39.36Z"/><path class="cls-3" d="M6.51,32.63a1.48,1.48,0,0,1,1.07.6,1.75,1.75,0,0,1,.22,1.28l0,.33,1.45.21L9,36.23,4.66,35.6l.22-1.51a1.87,1.87,0,0,1,.54-1.19A1.3,1.3,0,0,1,6.51,32.63Zm.28,2.07,0-.21A.56.56,0,0,0,6.73,34a.51.51,0,0,0-.39-.21c-.29,0-.46.1-.51.42l0,.31Z"/><path class="cls-3" d="M7.67,28.31a1.5,1.5,0,0,1,1,.74,1.78,1.78,0,0,1,0,1.3l-.09.32,1.4.4-.32,1.15L5.44,31l.42-1.47a1.9,1.9,0,0,1,.69-1.11A1.34,1.34,0,0,1,7.67,28.31Zm0,2.1.06-.21a.6.6,0,0,0,0-.46.55.55,0,0,0-.36-.26c-.28-.08-.47,0-.56.35l-.09.3Z"/><path class="cls-3" d="M10.88,28.3,6.83,26.57l.47-1.1,3.17,1.36.67-1.56.88.38Z"/><path class="cls-3" d="M12.52,24.74,8.66,22.6l.58-1L13.1,23.7Z"/><path class="cls-3" d="M12,19a.76.76,0,0,0-.1.74,1.67,1.67,0,0,0,.65.75c.69.49,1.23.47,1.6-.05a2,2,0,0,0,.26-.51c.06-.19.11-.37.16-.57l.82.58a3,3,0,0,1-.52,1.16,2,2,0,0,1-1.36.92,2.36,2.36,0,0,1-1.67-.53,2.67,2.67,0,0,1-.84-.91,1.81,1.81,0,0,1-.22-1.06,2.2,2.2,0,0,1,.43-1.09,3,3,0,0,1,1-.94l.56.84a2.79,2.79,0,0,0-.44.29A1.67,1.67,0,0,0,12,19Z"/><path class="cls-3" d="M18,17.29l-.75-.41-1,1.05.45.73-.9.95-2.24-4.08,1.09-1.16,4.23,2Zm-1.63-.9L15.72,16l-.56-.31-.49-.29c.07.09.16.23.3.43s.39.6.77,1.21Z"/><path class="cls-3" d="M20.93,14.73l-.93.75-2.16-2.67-.84.68-.61-.76,2.6-2.1.61.75-.83.68Z"/><path class="cls-3" d="M22.56,13.55l-2.41-3.7,1-.66,2.4,3.7Z"/><path class="cls-3" d="M27.28,8.44a2.4,2.4,0,0,1,.25,1.76,2.11,2.11,0,0,1-1.18,1.23,2.1,2.1,0,0,1-1.69.17,2.39,2.39,0,0,1-1.24-1.28,2.35,2.35,0,0,1-.24-1.75,2.11,2.11,0,0,1,1.18-1.23,2.07,2.07,0,0,1,1.69-.18A2.37,2.37,0,0,1,27.28,8.44ZM24.55,9.77c.38.77.83,1,1.36.76a.76.76,0,0,0,.47-.57,1.75,1.75,0,0,0-.23-1,1.73,1.73,0,0,0-.63-.78.76.76,0,0,0-.73,0C24.25,8.48,24.17,9,24.55,9.77Z"/><path class="cls-3" d="M33,8.94l-1.5.44L29.1,6.87h0c.18.46.3.81.38,1.06L30,9.84l-1,.3L27.74,5.91l1.49-.44,2.42,2.47h0c-.15-.42-.26-.76-.34-1L30.75,5l1-.3Z"/><path class="cls-3" d="M36.75,7a1.35,1.35,0,0,1-.09.75,1.36,1.36,0,0,1-.51.59,2.3,2.3,0,0,1-.88.32,3.48,3.48,0,0,1-.74.06,3.27,3.27,0,0,1-.65-.11l-.17-1a3.14,3.14,0,0,0,.74.15,2.54,2.54,0,0,0,.68,0,.68.68,0,0,0,.37-.15.29.29,0,0,0,.09-.26.22.22,0,0,0-.08-.14A.5.5,0,0,0,35.33,7a5,5,0,0,0-.62-.19,2.55,2.55,0,0,1-.7-.27,1.26,1.26,0,0,1-.39-.37,1.32,1.32,0,0,1-.19-.54,1.11,1.11,0,0,1,.28-1,1.91,1.91,0,0,1,1.15-.54,3.52,3.52,0,0,1,1.43.09l-.21,1A2.47,2.47,0,0,0,35,5.07a.56.56,0,0,0-.32.13.27.27,0,0,0-.07.22c0,.09.07.15.17.21a6.58,6.58,0,0,0,.78.25,2.07,2.07,0,0,1,.87.41A1.22,1.22,0,0,1,36.75,7Z"/><path class="cls-3" d="M42.8,8.36,42.52,8a3.29,3.29,0,0,1-.46.21,1.59,1.59,0,0,1-.4.07,2.6,2.6,0,0,1-.49,0,2.12,2.12,0,0,1-.83-.22,1.21,1.21,0,0,1-.69-1.17,1.31,1.31,0,0,1,.9-1.15,1.73,1.73,0,0,1-.27-.47,1.34,1.34,0,0,1-.07-.54A.91.91,0,0,1,40.63,4a1.66,1.66,0,0,1,1-.22,1.56,1.56,0,0,1,1,.34.92.92,0,0,1,.31.79,1.07,1.07,0,0,1-.23.61,1.89,1.89,0,0,1-.64.49l.57.61A2.42,2.42,0,0,0,43,5.89L44.23,6a3.8,3.8,0,0,1-.33.82,3.38,3.38,0,0,1-.49.69l.91,1ZM40.87,6.93a.36.36,0,0,0,.12.31.5.5,0,0,0,.35.15,1.32,1.32,0,0,0,.3,0l.21-.09-.7-.81A.59.59,0,0,0,40.87,6.93Zm1-2.06a.24.24,0,0,0-.07-.21.32.32,0,0,0-.21-.08.31.31,0,0,0-.23.06.29.29,0,0,0-.11.24.65.65,0,0,0,.24.48.75.75,0,0,0,.27-.22A.46.46,0,0,0,41.89,4.87Z"/><path class="cls-3" d="M51.72,5.81,51,8.36a1.83,1.83,0,0,1-.85,1.15,2,2,0,0,1-1.49.05,1.91,1.91,0,0,1-1.2-.84,1.77,1.77,0,0,1-.09-1.41l.76-2.57,1.15.34-.73,2.48a1.07,1.07,0,0,0,0,.7.62.62,0,0,0,.44.35.59.59,0,0,0,.56,0A1.06,1.06,0,0,0,49.85,8l.73-2.48Z"/><path class="cls-3" d="M54.62,10.42a1.31,1.31,0,0,1-.49.57,1.38,1.38,0,0,1-.76.21,2.32,2.32,0,0,1-.91-.22,3.65,3.65,0,0,1-.64-.36,2.3,2.3,0,0,1-.48-.46l.44-1a3.38,3.38,0,0,0,.53.54,2.94,2.94,0,0,0,.58.37.67.67,0,0,0,.39.07.27.27,0,0,0,.21-.16.33.33,0,0,0,0-.17.53.53,0,0,0-.09-.19c-.05-.07-.19-.24-.42-.5a2.78,2.78,0,0,1-.43-.61A1.23,1.23,0,0,1,52.45,8a1.4,1.4,0,0,1,.14-.56,1.14,1.14,0,0,1,.8-.68A2,2,0,0,1,54.64,7a3.54,3.54,0,0,1,1.14.87l-.71.69a2.57,2.57,0,0,0-.86-.7.52.52,0,0,0-.34-.07.24.24,0,0,0-.18.14.3.3,0,0,0,0,.27,4.58,4.58,0,0,0,.51.64,2,2,0,0,1,.49.83A1.26,1.26,0,0,1,54.62,10.42Z"/><path class="cls-3" d="M57.12,13.45l-2.24-1.36,2.29-3.77,2.24,1.36-.5.82-1.22-.74-.36.59,1.13.68-.49.82-1.13-.68-.44.71,1.22.74Z"/><path class="cls-3" d="M63.4,14a.77.77,0,0,0-.72-.19,1.7,1.7,0,0,0-.83.56c-.57.62-.61,1.16-.13,1.59a1.86,1.86,0,0,0,.47.32c.17.08.35.16.54.23l-.68.74A2.93,2.93,0,0,1,61,16.6a2,2,0,0,1-.74-1.45,2.4,2.4,0,0,1,.73-1.6,2.67,2.67,0,0,1,1-.72A1.85,1.85,0,0,1,63,12.74a2.19,2.19,0,0,1,1,.56,3.1,3.1,0,0,1,.8,1.15l-.9.44c-.07-.16-.15-.32-.23-.47A1.85,1.85,0,0,0,63.4,14Z"/><path class="cls-3" d="M64.36,20.2l.5-.7-.92-1.1-.78.36-.83-1L66.65,16l1,1.23L65.19,21.2Zm1.09-1.51.44-.61c.09-.14.22-.31.37-.53a5.52,5.52,0,0,1,.35-.44l-.46.24-1.3.61Z"/><path class="cls-3" d="M68.17,23.48a1.22,1.22,0,0,1-.73.21,1.31,1.31,0,0,1-.73-.25,2.33,2.33,0,0,1-.64-.68,3.48,3.48,0,0,1-.34-.66,3,3,0,0,1-.15-.65l.91-.56a3.11,3.11,0,0,0,.14.75,2.36,2.36,0,0,0,.27.62.63.63,0,0,0,.29.28.24.24,0,0,0,.26,0,.21.21,0,0,0,.11-.12.58.58,0,0,0,0-.21,5.92,5.92,0,0,0-.07-.65,3.27,3.27,0,0,1,0-.75,1.2,1.2,0,0,1,.62-.88,1.12,1.12,0,0,1,1-.13,1.94,1.94,0,0,1,.93.86A3.33,3.33,0,0,1,70.56,22l-1,.18a2.65,2.65,0,0,0-.33-1.06.54.54,0,0,0-.24-.24.26.26,0,0,0-.23,0,.32.32,0,0,0-.13.24,4.85,4.85,0,0,0,.07.82,1.93,1.93,0,0,1,0,1A1.13,1.13,0,0,1,68.17,23.48Z"/><path class="cls-3" d="M68.56,27.36,67.45,25l4-1.87,1.11,2.37-.86.41-.61-1.3-.63.3L71,26.09l-.86.41-.57-1.2-.75.36L69.44,27Z"/><path class="cls-3" d="M71.1,30.63a1.41,1.41,0,0,1-.76,0,1.38,1.38,0,0,1-.66-.42,2.22,2.22,0,0,1-.45-.82,3.64,3.64,0,0,1-.17-.72,2.45,2.45,0,0,1,0-.66l1-.33a3.23,3.23,0,0,0,0,.76,2.22,2.22,0,0,0,.12.67.64.64,0,0,0,.2.34.3.3,0,0,0,.27.05.26.26,0,0,0,.13-.1.47.47,0,0,0,.08-.19c0-.09,0-.3.09-.65a2.67,2.67,0,0,1,.16-.73,1.15,1.15,0,0,1,.3-.44,1.24,1.24,0,0,1,.51-.27,1.12,1.12,0,0,1,1,.12,1.93,1.93,0,0,1,.7,1.05,3.36,3.36,0,0,1,.13,1.43l-1-.06a2.52,2.52,0,0,0-.07-1.1.59.59,0,0,0-.18-.3.25.25,0,0,0-.22,0,.28.28,0,0,0-.18.2,5,5,0,0,0-.13.81,2.13,2.13,0,0,1-.28.93A1.18,1.18,0,0,1,71.1,30.63Z"/><path class="cls-3" d="M19.89,66.36a1.53,1.53,0,0,1-1.07.61,1.78,1.78,0,0,1-1.21-.48l-.26-.21-.93,1.12-.92-.75,2.81-3.41,1.18,1a1.82,1.82,0,0,1,.73,1.08A1.27,1.27,0,0,1,19.89,66.36ZM18,65.53l.17.13a.58.58,0,0,0,.43.16A.53.53,0,0,0,19,65.6a.42.42,0,0,0-.09-.66l-.24-.2Z"/><path class="cls-3" d="M21.69,69.21l-.82,1.38-1-.6,2.25-3.8,1.24.74c1,.61,1.32,1.29.88,2a1.31,1.31,0,0,1-1.25.64l.13,2.31-1.16-.69V69.37Zm.46-.77.19.12c.36.21.63.16.82-.16s.05-.49-.3-.7l-.2-.12Z"/><path class="cls-3" d="M29.61,72.22a2.36,2.36,0,0,1-1.12,1.38,2.06,2.06,0,0,1-1.7,0,2.11,2.11,0,0,1-1.28-1.11,2.41,2.41,0,0,1,.1-1.79,2.35,2.35,0,0,1,1.11-1.37,2.09,2.09,0,0,1,1.71,0,2.09,2.09,0,0,1,1.28,1.11A2.35,2.35,0,0,1,29.61,72.22Zm-2.84-1.09c-.3.8-.18,1.3.38,1.51a.75.75,0,0,0,.73,0,2.23,2.23,0,0,0,.7-1.82.74.74,0,0,0-.5-.53C27.52,70,27.08,70.33,26.77,71.13Z"/><path class="cls-3" d="M32.27,75.15l-1.15-.25.94-4.31,2.55.55-.2.94L33,71.77l-.17.83,1.29.28-.21.93-1.29-.28Z"/><path class="cls-3" d="M38.45,76l-2.61-.21.36-4.4,2.62.22-.08,1-1.43-.12-.05.69,1.31.11-.08,1-1.31-.11-.07.83,1.42.11Z"/><path class="cls-3" d="M43.53,74.52a1.42,1.42,0,0,1-.17.74,1.34,1.34,0,0,1-.58.52,2.07,2.07,0,0,1-.91.23,3.47,3.47,0,0,1-.74,0,2.36,2.36,0,0,1-.63-.19l-.06-1.06a3.28,3.28,0,0,0,.73.24,2.73,2.73,0,0,0,.68.06.71.71,0,0,0,.38-.11.27.27,0,0,0,.11-.24.23.23,0,0,0-.06-.16.56.56,0,0,0-.16-.13c-.08,0-.28-.13-.6-.25a2.71,2.71,0,0,1-.67-.35,1.07,1.07,0,0,1-.34-.4,1.36,1.36,0,0,1-.14-.56,1.11,1.11,0,0,1,.4-1,2,2,0,0,1,1.2-.41,3.45,3.45,0,0,1,1.41.25l-.32.93A2.66,2.66,0,0,0,42,72.42a.54.54,0,0,0-.33.1.23.23,0,0,0-.1.2.32.32,0,0,0,.15.23,5.44,5.44,0,0,0,.75.33,2.06,2.06,0,0,1,.82.51A1.28,1.28,0,0,1,43.53,74.52Z"/><path class="cls-3" d="M48.35,73.7a1.3,1.3,0,0,1-.07.76,1.39,1.39,0,0,1-.49.6,2.15,2.15,0,0,1-.87.35,3.6,3.6,0,0,1-.74.08,2.6,2.6,0,0,1-.65-.09l-.2-1a3.68,3.68,0,0,0,.75.13,2.93,2.93,0,0,0,.68,0,.61.61,0,0,0,.36-.16A.29.29,0,0,0,47.2,74a.25.25,0,0,0-.08-.14.5.5,0,0,0-.18-.11l-.63-.16a3.14,3.14,0,0,1-.71-.25,1.07,1.07,0,0,1-.4-.36,1.72,1.72,0,0,1-.21-.53,1.15,1.15,0,0,1,.26-1,1.93,1.93,0,0,1,1.13-.57,3.48,3.48,0,0,1,1.43,0l-.18,1a2.53,2.53,0,0,0-1.1-.07.53.53,0,0,0-.32.14.27.27,0,0,0-.07.22.29.29,0,0,0,.18.2,4.65,4.65,0,0,0,.79.23A2.13,2.13,0,0,1,48,73,1.21,1.21,0,0,1,48.35,73.7Z"/><path class="cls-3" d="M50.62,74.44l-1.34-4.2,1.14-.36,1.34,4.2Z"/><path class="cls-3" d="M56.83,69.48a2.38,2.38,0,0,1,.24,1.76,2.47,2.47,0,0,1-2.88,1.38,2.88,2.88,0,0,1-1.47-3,2.49,2.49,0,0,1,2.88-1.39A2.43,2.43,0,0,1,56.83,69.48Zm-2.74,1.31c.37.77.82,1,1.36.77a.76.76,0,0,0,.47-.57,1.81,1.81,0,0,0-.22-1,1.68,1.68,0,0,0-.63-.78.73.73,0,0,0-.73,0C53.8,69.5,53.72,70,54.09,70.79Z"/><path class="cls-3" d="M63.34,67.66l-1.26.93L58.94,67l0,0c.32.37.56.66.71.87l1.18,1.6-.85.63L57.34,66.6l1.26-.92,3.11,1.52v0c-.28-.34-.51-.62-.67-.83l-1.18-1.61.86-.63Z"/><path class="cls-3" d="M67.17,63.91l-.75-.41-1,1,.44.73-.9,1-2.23-4.09L63.84,61l4.23,2ZM65.54,63l-.66-.36c-.15-.07-.33-.18-.56-.31l-.49-.28.3.42.77,1.21Z"/><path class="cls-3" d="M69.31,61.31l-3.64-2.5.67-1,2.85,2,1-1.4.79.54Z"/><polygon class="cls-3" points="63.15 53.14 43.41 64.73 40.2 66.62 37.13 64.87 19.94 55.12 17.05 53.48 17.02 50.07 16.88 30.79 16.85 26.86 20.48 24.73 35.51 15.9 39.8 13.38 44.35 15.97 62.95 26.52 63.15 53.14"/><path class="cls-4" d="M29.07,31.92a2.91,2.91,0,0,0-1.53,2.62V46c-1.74,1-2.25-.35-2.25-1.08V36.08l.11-1.52,1.23-1.92,2.44-.72Zm4,2.32a2.93,2.93,0,0,0-1.53,2.63v6.75l-2.25,1.3V38.41l.11-1.52L30.66,35l2.44-.73Zm4,2.33A2.93,2.93,0,0,0,35.6,39.2v2.09l-2.25,1.3V40.73l.11-1.52,1.23-1.92Z"/><path class="cls-4" d="M52.47,45.07a3.84,3.84,0,0,1-1.67,3.09l-11,6.36c-1,.55-2.06.56-2.41-.35,0,2.19,2,3.19,3.89,2.09l9.49-5.48L52,49.93l1-2c-.2-.83-.39-2-.59-2.83Zm-4-2.32c.2.82.39,2,.59,2.82l-1,2-1.27.85-9.49,5.49c-1.91,1.1-3.89.09-3.89-2.1.35.91,1.46.9,2.41.36l11-6.37a3.8,3.8,0,0,0,1.67-3.08Zm-4-2.33c.2.83.39,2,.59,2.82l-1,2-1.27.85L33.2,51.61c-1.91,1.1-3.89.09-3.89-2.1.35.92,1.46.91,2.41.36l11-6.37a3.8,3.8,0,0,0,1.67-3.08Zm-4-2.33c.2.83.39,2,.59,2.83l-1,2-1.27.85-9.49,5.48c-1.91,1.1-3.89.1-3.89-2.09.35.91,1.46.9,2.41.35l11-6.36A3.84,3.84,0,0,0,40.38,38.09Z"/><path class="cls-4" d="M35.6,37.45l3.31-1.91V33l-3.32,1.92a4.33,4.33,0,0,0-2.23,3.84v2.65a3.88,3.88,0,0,1,2.25-3.91Zm-4-2.32A3.74,3.74,0,0,0,29.32,39V36.38a4.36,4.36,0,0,1,2.23-3.84l7.35-4.24v2.59l-7.34,4.24Zm-4-2.33a4.36,4.36,0,0,0-2.25,3.91V34.05a4.36,4.36,0,0,1,2.23-3.84l9.29-5.36c1-.61,2.09.11,2.09,1.39Z"/><path class="cls-4" d="M52.47,47.19V32.72c0-1.2-.55-2.26-1.55-2,2.37-1.18,3.79.34,3.79,2.63,0,4.11,0,8.48,0,12.6a4.36,4.36,0,0,1-2.21,3.85l-2.3,1.33a4.24,4.24,0,0,0,2.26-3.9Zm-4-2.32a4.26,4.26,0,0,1-2.26,3.9l2.3-1.33a4.37,4.37,0,0,0,2.21-3.86c0-4.11,0-8.49,0-12.6,0-2.29-1.42-3.81-3.79-2.63,1-.22,1.55.84,1.55,2V44.87Zm-4-2.33V28.06c0-1.2-.55-2.25-1.55-2,2.37-1.17,3.79.34,3.79,2.63,0,4.11,0,8.49,0,12.6a4.37,4.37,0,0,1-2.21,3.86l-2.3,1.33a4.25,4.25,0,0,0,2.26-3.9Zm-4-2.33a4.24,4.24,0,0,1-2.26,3.9l2.3-1.33a4.36,4.36,0,0,0,2.21-3.85c0-4.12,0-8.49,0-12.6,0-2.29-1.42-3.81-3.79-2.63,1-.22,1.55.84,1.55,2Z"/>
</svg>




